<svg xmlns="http://www.w3.org/2000/svg" viewBox="0 0 24 24" fill="none">
  <path fill="#25F4EE" d="M16.6 5.82A4.74 4.74 0 0 1 14.8 2h-3.2v13.4a2.6 2.6 0 1 1-2.6-2.6c.22 0 .44.03.64.08V9.6a5.8 5.8 0 0 0-.64-.04A5.82 5.82 0 1 0 14.8 15.4V9.1a7.9 7.9 0 0 0 4.6 1.46V7.36a4.74 4.74 0 0 1-2.8-1.54Z"/>
  <path fill="#FE2C55" d="M15.4 4.7A4.74 4.74 0 0 1 13.6.88H12v13.4a2.6 2.6 0 1 1-2.6-2.6c.22 0 .44.03.64.08V8.48a5.8 5.8 0 0 0-.64-.04A5.82 5.82 0 1 0 15.2 14.28V7.98a7.9 7.9 0 0 0 4.6 1.46V6.24a4.74 4.74 0 0 1-4.4-1.54Z" opacity=".9"/>
  <path fill="#fff" d="M14.8 5.82A4.74 4.74 0 0 1 13 2H9.8v13.4a2.6 2.6 0 1 1-2.6-2.6c.22 0 .44.03.64.08V9.6a5.8 5.8 0 0 0-.64-.04A5.82 5.82 0 1 0 13 15.4V9.1a7.9 7.9 0 0 0 4.6 1.46V7.36a4.74 4.74 0 0 1-2.8-1.54Z"/>
</svg>
